<?xml version="1.0" encoding="UTF-8"?>
<svg xmlns="http://www.w3.org/2000/svg" id="Calque_1" version="1.1" viewBox="0 0 430.86 312.81">
  <defs>
    <style>
      .st0 {
        fill: none;
      }

      .st1 {
        fill: #006bb6;
      }

      .st2 {
        fill: #263287;
      }

      .st3 {
        fill: #263186;
      }
    </style>
  </defs>
  <g id="Logo_coul">
    <path class="st3" d="M159.5,115.28c0,3.6,1.08,6.36,3.75,7.36,1.74.73,3.17,1.27,3.17,2.67,0,1.51-1.27,2.13-3.48,2.13-1.86,0-6.11-.19-8.24-.19-2.43,0-5.3.19-6.84.19-1.97,0-2.75-.77-2.75-1.82,0-2.32,3.64-2.09,4.18-5.91.27-1.89.39-14.36.39-20.89,0-4.6-.04-17.28-.15-18.74-.43-5.26-4.18-4.83-4.18-7.5,0-1.04.54-1.97,2.55-1.97,2.94,0,6.72.19,17.24.19,5.48,0,6.21-.06,9.27-.13,2.37-.06,5.86-.23,5.97,1.98.16,3.3.9,7.18,2.74,9.29,1.14,1.31.61,3.66-1.31,4.24s-2.83-.28-4-2.47c-2.78-6.19-1.61-6.85-10.85-6.85-6.46,0-7.46.58-7.46,4.41v11.45c0,2.59.46,3.21,2.24,3.21,8,0,8.31-1.7,9.78-4.44.42-.66.89-1.16,1.62-1.16,1.27,0,1.82,1.04,1.82,4.02v10.51c0,1.97-.35,3.02-1.62,3.02s-1.89-1.24-2.32-2.24c-1.39-2.94-1.97-4.06-9.09-4.06-1.93,0-2.44.89-2.44,3.21v10.52-.03Z"></path>
    <path class="st3" d="M195.26,109.63c-.73.04-1,.19-1,.73,0,3.26,2.99,9.63,10.94,9.63,5.87,0,9.37-2.88,11.4-6.18.42-.54.96-1,1.42-1,.61,0,1,.61,1,2,0,4.64-5.53,12.63-16.47,12.63s-18.65-8.02-18.65-19.31,7.83-21.03,19.61-21.03c9.71,0,14.89,6.95,14.89,13.89,0,2.38-1.15,3.76-2.84,4.72-4.57,2.76-14.74,3.72-20.3,3.92h0ZM202.63,92.05c-5.41,0-9.37,5.45-9.37,11.13,0,1.19.38,1.92,1.3,1.92,2.92,0,10.86-1,13.82-3.03.88-.61,1.31-1.38,1.31-2.46,0-4.3-3.03-7.56-7.06-7.56Z"></path>
    <path class="st2" d="M261.98,109.63c-.73.04-1,.19-1,.73,0,3.26,2.99,9.63,10.94,9.63,5.87,0,9.37-2.88,11.4-6.18.42-.54.96-1,1.42-1,.61,0,1,.61,1,2,0,4.64-5.53,12.63-16.47,12.63s-18.65-8.02-18.65-19.31,7.83-21.03,19.61-21.03c9.71,0,14.89,6.95,14.89,13.89,0,2.38-1.15,3.76-2.84,4.72-4.57,2.76-14.74,3.72-20.3,3.92h0ZM269.35,92.05c-5.41,0-9.37,5.45-9.37,11.13,0,1.19.38,1.92,1.3,1.92,2.92,0,10.86-1,13.82-3.03.88-.61,1.31-1.38,1.31-2.46,0-4.3-3.03-7.56-7.06-7.56Z"></path>
    <path class="st3" d="M235.99,111.16c0,6.23,2.22,8.63,5.96,8.11,2.13-.41,2.75-1.31,3.25-1.72.46-.35.85.12.88.44.84,3.19-2.53,9.45-9.58,9.45s-9.79-6.54-9.79-15.72c0-3.49.5-11.5.5-15.3,0-1.46-.35-2.15-1.5-2.3-2.8-.35-4.45-.54-4.45-2.03,0-1.15.42-2.15,1.73-2.76,2.3-1.04,4.64-2.34,6.33-4.18,2.92-3.26,3.15-7.41,5.34-7.41,1.23,0,2.03,1.04,2.03,2.99,0,1.5-.38,7.45-.38,7.72,0,.19.04.31.35.31.65,0,8.18-.38,9.06-.38,1.5,0,2.46.42,2.46,2.23,0,1.31-.73,2.99-1.38,3.68-.23.23-.69.46-1.3.46-.81,0-7.52-.38-8.52-.38-.23,0-.58.08-.61.65-.12,1.38-.35,12.24-.35,16.16l-.03-.02Z"></path>
    <g>
      <g>
        <path class="st3" d="M68.17,240.13c-.09-.24-.22-.41-.36-.41-.17,0-.39.34-.9.81-.99.9-2.87,2.21-5.98,2.21-4.44,0-8.79-3.48-8.79-10.67,0-7.8,4.46-11.59,9.41-11.59,4.27,0,6,3.26,6.36,3.26.21,0,.34-.21.34-1.39v-6.71c0-.83-.55-1.26-1.48-1.52-.43-.15-.94-.43-.94-.81,0-.71.68-.84,1.65-1.2,1.89-.75,2.57-1.28,3.24-1.28s.99.36.99,1.15c0,1.01-.17,2.04-.17,6.07v19.91c0,1.07.36,1.97,1.28,1.97.64,0,.82-.24,1.16-.24.09,0,.32.08.32.6,0,1.14-1.26,2.32-2.83,2.32s-2.68-.64-3.3-2.46v-.02ZM68.32,231.6c0-6.81-3.43-9-6.35-9-3.47,0-6.38,3.04-6.38,8.93,0,5.21,2.23,8.81,6.43,8.81,3.56,0,6.3-2.64,6.3-8.74h0Z"></path>
        <path class="st3" d="M96.65,237.94c0,1.07.39,1.97,1.28,1.97.64,0,.84-.24,1.18-.24.06,0,.32.08.32.6,0,1.14-1.26,2.32-2.87,2.32-2.31,0-2.96-1.57-3.3-2.51-.04-.15-.15-.36-.32-.36-.13,0-.39.28-.58.47-.64.62-2.49,2.55-6.39,2.55-5.16,0-7.27-3.97-7.27-8.51,0-3.47.37-7.37.37-8.49,0-1.2-.28-1.58-.69-1.99-.51-.47-1.65-.64-1.65-1.46,0-.6.45-.84,1.33-.97,2.51-.32,3.34-.71,4.2-.71.71,0,.99.49.99,1.01,0,1.2-1.14,4.18-1.14,11.62,0,3.58,1.03,7.13,5.14,7.13,3.68,0,6.13-2.46,6.13-7.2v-7.22c0-1.18-.28-1.95-1.35-2.51-.49-.28-1.11-.55-1.11-1.15,0-.56.43-.84,1.11-.95,1.88-.19,3.45-.73,4.2-.73.51,0,.92.34.92.96,0,1.05-.51,2.06-.51,5.81v10.56Z"></path>
      </g>
      <g>
        <path class="st3" d="M162.97,263.36c-.14-.18-1.03-1.26-1.71-1.85-.3-.26-.76-.07-.81.31-.31,2.2-1.15,4.14-4.32,4.4-3.47.29-7.43-5.25-7.43-5.25,0,0,.28-.11.46-.14,11.73-1.68,20.9-10.33,20.9-25.97,0-18.56-12.28-29.09-26.44-29.09-15.1,0-25.7,11.54-25.7,28.23,0,11.89,5.46,20.82,14.97,24.68,1.17.63,1.72.82,1.72,1.09,0,.35-.54.7-.97,1.21-1.05,1.17-1.87,2.66-1.87,4.49,0,1.22.45,2.01,1.13,2.54.27.21.65.03.68-.32.19-2.2,2.59-4.2,5.67-4.15,3.85.07,8.09,7.73,14.2,10.76,1.45.72,2.9.95,4.23.89,4.81-.26,8.22-4.91,6.44-9.73-.26-.71-.64-1.42-1.14-2.12v.02ZM132.85,246.09c-2.37-5.06-3.15-10.84-3.15-15.71,0-12.79,6.28-18.84,12.63-18.84,5.11,0,9.9,3.66,12.87,9.55,2.38,4.76,3.82,11.27,3.82,17.16,0,11.66-6.12,16.81-13.14,16.81-4.37,0-9.75-2.42-13.03-8.97h0Z"></path>
        <g>
          <path class="st3" d="M212.25,250.12c0,1.69.65,3.3,2.3,3.3.96,0,1.3-.31,1.92-.31.31,0,.69.42.69,1.31,0,3.3-3.07,5.99-6.91,5.99-4.34,0-5.95-2.46-6.83-4.34-.15-.31-.35-.77-.81-.77-.23,0-.65.46-1.07.84-1.38,1.27-4.68,4.45-11.05,4.45-9.33,0-12.86-6.56-12.86-14.62,0-5.76.81-12.74.81-14.74,0-2.15-.54-3.11-1.5-4.03-1.11-1.04-2.88-1.34-2.88-2.99,0-1.31,1-1.92,2.92-2.15,5.99-.65,7.87-1.5,9.56-1.5s2.23,1.23,2.23,2.3c0,3.65-1.69,8.37-1.69,20.15,0,6.26,1.69,11.25,7.64,11.25,4.76,0,8.41-3.15,8.41-10.25v-11.78c0-2.73-.38-4.07-2.03-5.26-1-.84-2.19-1.31-2.19-2.76,0-1.27.88-1.88,2.61-2.11,4.76-.5,8.18-1.54,9.56-1.54,1.46,0,2.07,1.04,2.07,2.26,0,2.3-.88,4.15-.88,10.75v16.54h-.02Z"></path>
          <path class="st3" d="M232.36,242.87c-.73.04-1,.19-1,.73,0,3.26,2.99,9.63,10.94,9.63,5.87,0,9.37-2.88,11.4-6.18.42-.54.96-1,1.42-1,.61,0,1,.61,1,2,0,4.64-5.53,12.63-16.47,12.63s-18.65-8.02-18.65-19.31,7.83-21.03,19.61-21.03c9.71,0,14.89,6.95,14.89,13.89,0,2.38-1.15,3.76-2.84,4.72-4.57,2.76-14.74,3.72-20.3,3.92h0ZM239.73,225.29c-5.41,0-9.37,5.45-9.37,11.13,0,1.19.38,1.92,1.3,1.92,2.92,0,10.86-1,13.82-3.03.88-.61,1.31-1.38,1.31-2.46,0-4.3-3.03-7.56-7.06-7.56h0ZM239.12,206.83c.77-2.15,1.77-4.84,4.64-4.84,2.3,0,3.42,1.73,3.42,3.53,0,1.46-.58,2.92-2.11,4.91-2.38,3.15-6.45,6.26-8.29,6.26-.96,0-1.5-.46-1.5-1.27,0-.31.12-.54.84-1.96,1.07-2.07,2.26-4.61,2.99-6.64h0Z"></path>
          <path class="st3" d="M263.49,214.12c0-1.84-1.23-2.69-2.61-3.22-.77-.42-1.54-.84-1.54-1.8,0-1.5,1.61-1.88,4.41-2.96,3.92-1.46,5.37-2.73,6.99-2.73,1.3,0,2.19.69,2.19,2.34,0,2.11-.61,5.57-.61,12.82v6.26c0,1.46.23,1.96.54,1.96.84,0,4.18-6.45,12.32-6.45,8.98,0,14.74,7.52,14.74,19.04,0,13.78-7.83,21.23-17.81,21.23-5.91,0-8.26-3.15-10.34-3.54-1.85-.35-3.82.62-4.78,1.7-1.34,1.5-1.31,1.92-2.5,1.92-1,0-1.57-.82-1.57-1.9,0-1.88.58-2.75.58-10.58v-34.08h-.01ZM272.44,240.45c0,11.44,4.07,14.82,8.71,14.82s9.02-4.49,9.02-14.47-3.76-14.12-8.67-14.12c-4.53,0-9.06,4.26-9.06,13.78h0Z"></path>
          <path class="st3" d="M315.89,242.87c-.73.04-1,.19-1,.73,0,3.26,2.99,9.63,10.94,9.63,5.87,0,9.37-2.88,11.4-6.18.42-.54.96-1,1.42-1,.61,0,1,.61,1,2,0,4.64-5.53,12.63-16.47,12.63s-18.65-8.02-18.65-19.31,7.83-21.03,19.61-21.03c9.71,0,14.89,6.95,14.89,13.89,0,2.38-1.15,3.76-2.84,4.72-4.57,2.76-14.74,3.72-20.3,3.92h0ZM323.26,225.29c-5.41,0-9.37,5.45-9.37,11.13,0,1.19.38,1.92,1.3,1.92,2.92,0,10.86-1,13.82-3.03.88-.61,1.31-1.38,1.31-2.46,0-4.3-3.03-7.56-7.06-7.56h0Z"></path>
          <path class="st3" d="M363.18,220.34c7.83,0,13.51,4.34,13.51,9.83,0,3.68-2.76,5.83-5.99,5.83-1.8,0-1.92-1-2.46-3.22-.84-3.92-2.84-7.56-6.91-7.56-4.91,0-8.64,5.03-8.64,12.24,0,8.37,4.64,14.93,12.74,14.93,6.64,0,9.48-4.3,10.86-6.52.35-.46.81-1,1.3-1,.88,0,1.11,1,1.11,2.19,0,5.64-5.87,13.63-16.43,13.63s-18.65-8.14-18.65-19.38,7.37-20.96,19.54-20.96h.02Z"></path>
        </g>
      </g>
    </g>
    <g>
      <path class="st3" d="M90.44,182.92c0,1.5.61,3.03,1.8,3.92,1.42.92,2.61,1.15,2.61,2.61,0,1.15-.81,1.92-2.88,1.92-1.73,0-3.07-.19-5.18-.19-2.34,0-3.42.19-5.34.19-1.5,0-2-.84-2-1.8,0-1.23.61-2.53.88-3.26.73-2.26,1.69-9.44,1.69-16.97s-2.92-11.17-7.79-11.17c-4.18,0-8.75,4.11-8.75,7.98v15.85c0,2.65.46,3.72,1.61,4.72,1.11,1,2.38,1.23,2.38,2.73,0,1.11-.61,1.92-2.69,1.92s-3.76-.19-5.72-.19c-2.26,0-4.07.19-6.56.19-1.84,0-2.38-.84-2.38-1.8,0-1.46,1.34-2.11,2.07-2.73,1.88-1.69,2.19-3.34,2.19-5.3v-19.15c0-2-1.27-2.76-2.61-3.26-.81-.38-1.5-.88-1.5-1.8,0-1.69,2-2,4.49-3.07,3.19-1.38,4.41-2.23,5.68-2.23,1.19,0,1.88.5,2.26,2.15.38,1.8.54,3.76,1.19,3.76.81,0,5.53-6.26,13.01-6.26,8.14,0,12.59,5.22,12.59,15.08,0,7.06-1.07,13.63-1.07,16.16h.02Z"></path>
      <path class="st3" d="M122.31,168.26c.42-.31.81-.92.81-3.34,0-4.95-2.07-8.94-7.14-8.94-4.11,0-6.03,3.15-6.87,6.68-.46,1.88-1.23,3.11-3.34,3.11s-4.53-1.54-4.53-4.91c0-4.41,5.45-9.21,14.85-9.21,9.9,0,16.31,5.49,16.31,15.43,0,4.99-.42,10.9-.42,14.39,0,1.69.54,3.3,2.23,3.3.92,0,1.3-.31,1.88-.31.31,0,.69.42.69,1.31,0,3.3-3.07,5.99-6.91,5.99-3.26,0-5.41-1.23-6.56-4.03-.15-.35-.38-.65-.65-.65s-.58.46-.88.77c-2.49,2.42-6.64,4.26-11.02,4.26-6.49,0-11.55-3.42-11.55-9.56s4.38-9.94,11.17-11.98c4.99-1.42,11.02-1.65,11.94-2.3h-.01ZM122.42,173.17c-3.19,0-5.76.31-7.95,1-4.07,1.34-5.87,4.03-5.87,6.76,0,3.19,2.38,5.03,5.68,5.03,5.22,0,8.87-3.92,8.87-9.79,0-2.3-.23-2.99-.73-2.99h0Z"></path>
      <path class="st3" d="M182.53,167.03v14.97c0,2.65.69,3.72,1.84,4.72,1.07,1,2.34,1.23,2.34,2.73,0,1.11-.61,1.92-2.69,1.92s-3.8-.19-5.91-.19c-2.38,0-3.38.19-6.56.19-1.84,0-2.38-.84-2.38-1.8,0-1.46,1.34-2.11,2.07-2.73,1.88-1.69,2.19-3.34,2.19-5.3v-18.35c0-2.11-1.11-3.26-2.49-3.84-.81-.46-1.69-1-1.69-1.96,0-1.8,2-1.96,4.49-2.96,3.61-1.46,5.68-2.76,6.99-2.76,1.46,0,2.19.73,2.19,2.38,0,2-.38,5.45-.38,12.97h0ZM179.27,135.83c2.72,0,4.87,1.77,4.87,4.57,0,3.84-4.03,6.95-8.1,6.95-2.88,0-4.3-1.69-4.3-3.95,0-3.72,3.69-7.56,7.52-7.56h.01Z"></path>
      <path class="st3" d="M209.71,151.68c10.48,0,19.84,7.64,19.84,21.11s-8.75,19.15-19.35,19.15c-11.86,0-19.46-8.33-19.46-19.84s7.98-20.42,18.96-20.42h.01ZM200.57,168.95c0,3.34.5,7.72,2.19,11.17,2.15,4.3,5.6,6.03,8.75,6.03,4.49,0,8.6-3.22,8.6-11.05,0-4.03-1.04-8.67-2.69-11.98-2.23-4.3-5.41-6.41-8.56-6.41-4.49,0-8.29,3.84-8.29,12.24Z"></path>
      <path class="st3" d="M271.97,182.92c0,1.5.61,3.03,1.8,3.92,1.42.92,2.61,1.15,2.61,2.61,0,1.15-.81,1.92-2.88,1.92-1.73,0-3.07-.19-5.18-.19-2.34,0-3.42.19-5.34.19-1.5,0-2-.84-2-1.8,0-1.23.61-2.53.88-3.26.73-2.26,1.69-9.44,1.69-16.97s-2.92-11.17-7.79-11.17c-4.18,0-8.75,4.11-8.75,7.98v15.85c0,2.65.46,3.72,1.61,4.72,1.11,1,2.38,1.23,2.38,2.73,0,1.11-.61,1.92-2.69,1.92s-3.76-.19-5.72-.19c-2.26,0-4.07.19-6.56.19-1.84,0-2.38-.84-2.38-1.8,0-1.46,1.34-2.11,2.07-2.73,1.88-1.69,2.19-3.34,2.19-5.3v-19.15c0-2-1.27-2.76-2.61-3.26-.81-.38-1.5-.88-1.5-1.8,0-1.69,2-2,4.49-3.07,3.19-1.38,4.41-2.23,5.68-2.23,1.19,0,1.88.5,2.26,2.15.38,1.8.54,3.76,1.19,3.76.81,0,5.53-6.26,13.01-6.26,8.14,0,12.59,5.22,12.59,15.08,0,7.06-1.07,13.63-1.07,16.16h.02Z"></path>
      <path class="st3" d="M303.83,168.26c.42-.31.81-.92.81-3.34,0-4.95-2.07-8.94-7.14-8.94-4.11,0-6.03,3.15-6.87,6.68-.46,1.88-1.23,3.11-3.34,3.11s-4.53-1.54-4.53-4.91c0-4.41,5.45-9.21,14.85-9.21,9.9,0,16.31,5.49,16.31,15.43,0,4.99-.42,10.9-.42,14.39,0,1.69.54,3.3,2.23,3.3.92,0,1.3-.31,1.88-.31.31,0,.69.42.69,1.31,0,3.3-3.07,5.99-6.91,5.99-3.26,0-5.41-1.23-6.56-4.03-.15-.35-.38-.65-.65-.65s-.58.46-.88.77c-2.49,2.42-6.64,4.26-11.02,4.26-6.49,0-11.55-3.42-11.55-9.56s4.38-9.94,11.17-11.98c4.99-1.42,11.02-1.65,11.94-2.3h-.01ZM303.95,173.17c-3.19,0-5.76.31-7.95,1-4.07,1.34-5.87,4.03-5.87,6.76,0,3.19,2.38,5.03,5.68,5.03,5.22,0,8.87-3.92,8.87-9.79,0-2.3-.23-2.99-.73-2.99h0Z"></path>
      <path class="st3" d="M335.23,150.3v31.7c0,2.65.69,3.72,1.84,4.72,1.07,1,2.34,1.23,2.34,2.73,0,1.11-.61,1.92-2.69,1.92-1.69,0-4.03-.19-5.91-.19-2.3,0-4.11.19-6.56.19-1.84,0-2.38-.84-2.38-1.8,0-1.46,1.34-2.11,2.07-2.73,1.88-1.69,2.19-3.34,2.19-5.3v-36.16c0-1.77-1.23-2.65-2.57-3.15-.81-.42-1.57-.88-1.57-1.8,0-1.61,1.96-1.96,4.45-2.96,3.61-1.42,5.45-2.73,6.95-2.73,1.38,0,2.19.73,2.19,2.34,0,3.22-.35,4.22-.35,13.2v.02Z"></path>
      <path class="st3" d="M354.96,174.21c-.73.04-1,.19-1,.73,0,3.26,2.99,9.63,10.94,9.63,5.87,0,9.37-2.88,11.4-6.18.42-.54.96-1,1.42-1,.61,0,1,.61,1,2,0,4.64-5.53,12.63-16.47,12.63s-18.65-8.02-18.65-19.31,7.83-21.03,19.61-21.03c9.71,0,14.89,6.95,14.89,13.89,0,2.38-1.15,3.76-2.84,4.72-4.57,2.76-14.74,3.72-20.3,3.92h0ZM362.33,156.63c-5.41,0-9.37,5.45-9.37,11.13,0,1.19.38,1.92,1.3,1.92,2.92,0,10.86-1,13.82-3.03.88-.61,1.31-1.38,1.31-2.46,0-4.3-3.03-7.56-7.06-7.56h0Z"></path>
      <path class="st3" d="M152.48,175.67c0,6.23,2.22,8.63,5.96,8.11,2.13-.41,2.75-1.31,3.25-1.72.46-.35.85.12.88.44.84,3.19-2.53,9.45-9.58,9.45s-9.79-6.54-9.79-15.72c0-3.49.5-11.5.5-15.3,0-1.46-.35-2.15-1.5-2.3-2.8-.35-4.45-.54-4.45-2.03,0-1.15.42-2.15,1.73-2.76,2.3-1.04,4.64-2.34,6.33-4.18,2.92-3.26,3.15-7.41,5.34-7.41,1.23,0,2.03,1.04,2.03,2.99,0,1.5-.38,7.45-.38,7.72,0,.19.04.31.35.31.65,0,8.18-.38,9.06-.38,1.5,0,2.46.42,2.46,2.23,0,1.31-.73,2.99-1.38,3.68-.23.23-.69.46-1.3.46-.81,0-7.52-.38-8.52-.38-.23,0-.58.08-.61.65-.12,1.38-.35,12.24-.35,16.16l-.03-.02Z"></path>
    </g>
    <g>
      <path class="st1" d="M206.98,81.95c-.92-.17-1.9-.28-2.93-.3.95-10.83-6.4-14.47-.17-23.67,1.15-1.7,2.89-3.35,4.48-4.85.52-.47.85-.62,1.15-.58.29.04.57.27.95.86,1.13,1.86,2.36,3.92,3.01,5.87,3.53,10.5-4.46,12.06-6.48,22.66h-.01Z"></path>
      <g>
        <path class="st1" d="M226.49,80.89c-.55,1.18-1.6,2.46-2.5,3.08-.48.37-.94.24-.97-.14-.35-2.25-1.88-4.18-4.31-4.41-2.68-.25-5.17,2.34-7.03,4.24-.76-.43-1.57-.8-2.46-1.09,1.08-4.29,3.83-9.12,7.46-10.98,6.04-3.08,12.61,3.31,9.8,9.31h.01Z"></path>
        <path class="st1" d="M201.73,81.54v.17c-.88.08-1.75.21-2.58.39l-.08-.17c-1.28-2.33-2.98-5.5-5.63-5.97-2.41-.43-4.4,1.03-5.34,3.1-.13.35-.61.37-.97-.12-.7-.83-1.36-2.35-1.58-3.63-1.1-6.54,6.94-10.94,11.94-6.35,3,2.77,4.35,8.16,4.25,12.58h-.01Z"></path>
      </g>
    </g>
  </g>
  <rect id="Zone_de_dégagement" class="st0" width="430.86" height="312.81"></rect>
</svg>
